<svg width="30" height="30" viewBox="0 0 30 30" fill="none" xmlns="http://www.w3.org/2000/svg">
<path d="M21.1981 9.51671C20.2286 8.83328 17.8586 7.71043 14.9733 7.71043C12.0046 7.71043 9.88285 8.52043 8.62557 9.51671H21.1981ZM19.2661 22.4967L20.222 24.243C20.222 24.243 24.7931 23.6651 27.8036 20.4119C27.291 12.4469 24.3044 8.38928 24.3044 8.38928C24.3044 8.38928 21.6304 5.711 18.4724 5.48586L17.4657 7.86L19.2661 22.4967ZM5.642 19.319C7.53042 20.6579 10.3804 22.0514 14.9731 22.0514C19.5659 22.0514 22.4159 20.6579 24.3043 19.319H5.642ZM12.5544 7.86L11.474 5.48586C8.16085 5.77928 5.642 8.38928 5.642 8.38928C5.642 8.38928 2.65542 12.4469 2.14285 20.4119C5.15328 23.665 9.72442 24.243 9.72442 24.243L10.6803 22.4967L12.5544 7.86ZM10.7996 17.6161C9.55842 17.6161 8.55228 16.6374 8.55228 15.4301C8.55228 14.2229 9.55842 13.2443 10.7996 13.2443C12.0407 13.2443 13.0469 14.223 13.0469 15.4303C13.0469 16.6376 12.0407 17.6161 10.7996 17.6161ZM19.1469 17.6161C17.9057 17.6161 16.8996 16.6374 16.8996 15.4301C16.8996 14.2229 17.9057 13.2441 19.1469 13.2441C20.388 13.2441 21.3941 14.2229 21.3941 15.4301C21.3941 16.6374 20.388 17.6161 19.1469 17.6161Z" stroke="#4A423C" stroke-miterlimit="1" stroke-linecap="round" stroke-linejoin="round"/>
</svg>
