<svg width="30" height="30" viewBox="0 0 30 30" fill="none" xmlns="http://www.w3.org/2000/svg">
<path d="M19.7521 13.377L19.3685 13.7058L19.7012 14.086L27.6737 23.1973L28.3343 23.9523L28.5394 22.9702C28.545 22.9433 28.5494 22.9277 28.5564 22.9032C28.5622 22.8828 28.5698 22.8561 28.5813 22.8115C28.6007 22.7362 28.625 22.6273 28.625 22.5V7.5C28.625 7.22829 28.5501 6.98932 28.4982 6.82385C28.4962 6.81749 28.4943 6.81124 28.4924 6.80511L28.2659 6.08091L27.6898 6.57466L19.7521 13.377ZM26.927 6.07605L27.704 5.41002L26.701 5.20642C26.677 5.20154 26.663 5.19758 26.6396 5.19097C26.6206 5.1856 26.5954 5.17846 26.5535 5.16765C26.4813 5.14904 26.3749 5.125 26.25 5.125H3.75C3.62507 5.125 3.51869 5.14904 3.44655 5.16765C3.40464 5.17846 3.37941 5.1856 3.36039 5.19097C3.33702 5.19758 3.32302 5.20154 3.29897 5.20642L2.29602 5.41002L3.07304 6.07605L14.6746 16.0205L15 16.2994L15.3254 16.0205L26.927 6.07605ZM1.45977 22.9686L1.66511 23.9502L2.32549 23.1954L10.297 14.0841L10.6296 13.7039L10.2461 13.3752L2.31118 6.57467L1.73502 6.08088L1.50858 6.80511C1.50614 6.81292 1.50363 6.82093 1.50105 6.82912C1.44976 6.99246 1.375 7.23052 1.375 7.5V22.5C1.375 22.6265 1.39877 22.7344 1.41806 22.8097C1.42957 22.8548 1.43707 22.8813 1.44284 22.9016C1.44965 22.9257 1.45404 22.9412 1.45977 22.9686ZM2.83905 23.9377L2.33076 24.5186L3.06868 24.745C3.07848 24.748 3.08862 24.7511 3.09909 24.7543C3.25686 24.8031 3.48931 24.875 3.75 24.875H26.25C26.5124 24.875 26.7452 24.8028 26.903 24.7538C26.9129 24.7507 26.9226 24.7477 26.9319 24.7448L27.6686 24.5178L27.1609 23.9377L19.0311 14.6469L18.7052 14.2746L18.3294 14.5965L15.2844 17.2058L15.2844 17.2058L15.2817 17.2081C15.202 17.2774 15.102 17.3125 15 17.3125C14.898 17.3125 14.7981 17.2774 14.7184 17.2081L14.7156 17.2057L11.6706 14.5965L11.2948 14.2745L10.9689 14.6469L2.83905 23.9377ZM3.75 4.25H26.25C28.0448 4.25 29.5 5.7052 29.5 7.5V22.5C29.5 24.2948 28.0448 25.75 26.25 25.75H3.75C1.9552 25.75 0.5 24.2948 0.5 22.5V7.5C0.5 5.7052 1.9552 4.25 3.75 4.25Z" fill="#4A423C" stroke="#4A423C"/>
</svg>
