<svg width="30" height="30" viewBox="0 0 30 30" fill="none" xmlns="http://www.w3.org/2000/svg">
<path d="M14.5766 29.21C6.4731 29.2393 -0.194867 22.4952 0.00435126 14.2393C0.191851 6.39358 6.69576 -0.0927464 14.7817 0.00100368C22.7915 0.0947537 29.4008 6.76272 29.1958 14.9893C29.0024 22.8116 22.5512 29.2569 14.5766 29.21ZM12.9008 22.208C12.186 21.9795 11.4594 21.8096 10.7915 21.5108C9.43208 20.9014 8.57076 19.8467 8.29536 18.3643C8.11958 17.4034 8.1899 16.4366 8.30708 15.4756C8.41255 14.626 8.65865 13.835 9.30318 13.2198C9.35005 13.1729 9.35591 13.0381 9.32661 12.9678C9.01607 12.1182 9.05122 11.2686 9.30318 10.4073C9.37935 10.1494 9.5024 10.1201 9.72505 10.1905C10.311 10.3721 10.7856 10.7237 11.1899 11.169C11.4067 11.4034 11.6001 11.6612 11.8051 11.9073C13.0239 11.1162 16.5102 11.1162 17.7876 11.8955C18.0336 11.6084 18.268 11.3096 18.5317 11.0342C18.9243 10.6299 19.3813 10.3194 19.9379 10.167C20.1196 10.1143 20.2192 10.1553 20.2836 10.3487C20.5708 11.1983 20.6235 12.0479 20.2836 12.8975C20.2192 13.0674 20.225 13.1787 20.3598 13.3076C20.7641 13.6944 21.0102 14.1807 21.1391 14.7256C21.3852 15.7393 21.4379 16.7764 21.3676 17.8077C21.2915 18.9151 20.8754 19.8877 20.061 20.667C19.3754 21.3174 18.5551 21.7041 17.6528 21.9327C17.3247 22.0147 16.9965 22.0733 16.645 22.1436C17.0961 22.835 17.2075 23.585 17.1899 24.3702C17.1723 25.208 17.184 26.0518 17.184 26.8897C17.184 26.9893 17.1899 27.0948 17.1958 27.2002C22.5454 26.2276 27.9477 20.9014 27.3559 13.5244C26.7993 6.48733 20.5708 1.08499 13.3637 1.77639C6.6313 2.42093 1.22896 8.42679 1.83834 15.7041C2.41841 22.5889 7.99654 26.7139 12.3618 27.253C12.3618 26.7549 12.3618 26.2569 12.3618 25.753C12.1215 25.7881 11.9047 25.8174 11.6938 25.8409C10.1235 26.0166 8.87544 25.3135 8.17818 23.9131C7.79732 23.1455 7.39302 22.378 6.64302 21.8858C6.56099 21.833 6.51412 21.7334 6.4438 21.6455C6.50826 21.5987 6.53755 21.5752 6.57271 21.5577C6.61958 21.5401 6.66646 21.5342 6.71333 21.5284C7.24068 21.4932 7.73872 21.5869 8.1313 21.9561C8.38912 22.1963 8.62349 22.4834 8.81685 22.7823C9.55513 23.9366 10.8266 24.4229 12.1215 24.0362C12.2973 23.9834 12.3969 23.9073 12.4145 23.7022C12.4497 23.1514 12.602 22.6299 12.9008 22.208Z" fill="#4A423C"/>
</svg>
