<svg width="30" height="30" viewBox="0 0 30 30" fill="none" xmlns="http://www.w3.org/2000/svg">
<path d="M15 26.1094L14.5781 25.5938C14.2969 25.2188 7.125 16.8281 7.125 11.8125C7.125 7.45313 10.6875 3.9375 15 3.9375C19.3125 3.9375 22.875 7.50001 22.875 11.8125C22.875 16.8281 15.7031 25.2656 15.4219 25.5938L15 26.1094ZM15 5.01563C11.25 5.01563 8.25 8.06251 8.25 11.7656C8.25 15.7031 13.4531 22.4062 15 24.3281C16.5469 22.4062 21.75 15.75 21.75 11.7656C21.75 8.06251 18.75 5.01563 15 5.01563Z" fill="#4A423C"/>
<path d="M15 14.8125C13.3594 14.8125 12 13.4531 12 11.8125C12 10.1719 13.3594 8.8125 15 8.8125C16.6406 8.8125 18 10.1719 18 11.8125C18 13.4531 16.6406 14.8125 15 14.8125ZM15 9.93751C13.9687 9.93751 13.125 10.7813 13.125 11.8125C13.125 12.8438 13.9687 13.6875 15 13.6875C16.0312 13.6875 16.875 12.8438 16.875 11.8125C16.875 10.7813 16.0312 9.93751 15 9.93751Z" fill="#4A423C"/>
</svg>
