<svg width="30" height="30" viewBox="0 0 30 30" fill="none" xmlns="http://www.w3.org/2000/svg">
<path d="M26.7944 4.07433C26.6007 3.90695 26.3649 3.7958 26.1125 3.75293C25.8601 3.71006 25.6008 3.73711 25.3627 3.83114L3.73488 12.3278C3.45215 12.4389 3.21299 12.6385 3.05319 12.8968C2.89338 13.1552 2.82152 13.4583 2.84837 13.7609C2.87521 14.0634 2.99931 14.3492 3.2021 14.5753C3.40489 14.8015 3.67546 14.9559 3.97332 15.0155L9.84374 16.1896V23.4357C9.8408 23.7145 9.9221 23.9876 10.077 24.2194C10.2319 24.4512 10.4532 24.6309 10.7118 24.7348C10.8851 24.8074 11.071 24.845 11.2589 24.8455C11.4425 24.8449 11.6241 24.8079 11.7933 24.7365C11.9625 24.6652 12.1158 24.561 12.2444 24.4299L15.5955 21.0788L20.54 25.43C20.7948 25.6563 21.1236 25.7815 21.4644 25.7818C21.6126 25.7817 21.7598 25.7583 21.9007 25.7126C22.1331 25.6389 22.3421 25.5056 22.5069 25.3258C22.6716 25.1461 22.7864 24.9264 22.8397 24.6885L27.2476 5.45414C27.3051 5.2047 27.2933 4.94426 27.2134 4.70104C27.1336 4.45782 26.9887 4.24109 26.7944 4.07433V4.07433ZM3.7822 13.678C3.77054 13.5767 3.79337 13.4745 3.847 13.3878C3.90063 13.3011 3.98193 13.2351 4.07775 13.2003L23.903 5.41177L10.2038 15.3056L4.15717 14.0963C4.05673 14.0789 3.96508 14.0282 3.89704 13.9523C3.82899 13.8764 3.78854 13.7797 3.7822 13.678V13.678ZM11.5814 23.7671C11.5159 23.8327 11.4323 23.8773 11.3414 23.8954C11.2505 23.9135 11.1562 23.9042 11.0706 23.8687C10.9849 23.8332 10.9117 23.7732 10.8602 23.6961C10.8087 23.619 10.7812 23.5284 10.7812 23.4357V16.8422L14.8903 20.4583L11.5814 23.7671ZM26.3338 5.24472L21.9259 24.479C21.9078 24.5582 21.8694 24.6313 21.8145 24.6911C21.7596 24.751 21.6901 24.7955 21.6128 24.8204C21.5356 24.8454 21.4531 24.8498 21.3736 24.8333C21.2941 24.8167 21.2203 24.7799 21.1593 24.7262L11.0631 15.8415L26.258 4.86747C26.298 4.92071 26.3255 4.98223 26.3386 5.04751C26.3518 5.11278 26.3501 5.18017 26.3338 5.24472V5.24472Z" fill="#4A423C"/>
</svg>
